# AST/ASF file generated using VICON BodyLanguage
# -----------------------------------------------
:version 1.10
:name VICON
:units
  mass 1.0
  length 0.45
  angle deg
:documentation
   .ast/.asf automatically generated from VICON data using
   VICON BodyBuilder and BodyLanguage model FoxedUp or BRILLIANT.MOD
:root
   order TX TY TZ RX RY RZ
   axis XYZ
   position 0 0 0  
   orientation 0 0 0 
:bonedata
  begin
     id 1 
     name lhipjoint
     direction 0.645893 -0.654526 0.392961 
     length 2.38111 
     axis 0 0 0  XYZ
  end
  begin
     id 2 
     name lfemur
     direction 0.34202 -0.939693 0  
     length 6.6822  
     axis 0 0 20  XYZ
    dof rx ry rz
    limits (-160.0 20.0)
           (-70.0 70.0)
           (-60.0 70.0)
  end
  begin
     id 3 
     name ltibia
     direction 0.34202 -0.939693 0   
     length 6.93904   
     axis 0 0 20   XYZ
    dof rx
    limits (-10.0 170.0)
  end
  begin
     id 4 
     name lfoot
     direction 0.0694967 -0.190941 0.979138   
     length 2.13616   
     axis -90 7.62852e-016 20   XYZ
    dof rx rz
    limits (-45.0 90.0)
           (-70.0 20.0)
  end
  begin
     id 5 
     name ltoes
     direction 1.535e-011 -4.2202e-011 1   
     length 1.07536   
     axis -90 7.62852e-016 20   XYZ
    dof rx
    limits (-90.0 20.0)
  end
  begin
     id 6 
     name rhipjoint
     direction -0.700219 -0.612087 0.367481   
     length 2.54621  
     axis 0 0 0  XYZ 
  end
  begin
     id 7 
     name rfemur
     direction -0.34202 -0.939693 0   
     length 6.55353   
     axis 0 0 -20   XYZ
    dof rx ry rz
    limits (-160.0 20.0)
           (-70.0 70.0)
           (-70.0 60.0)
  end
  begin
     id 8 
     name rtibia
     direction -0.34202 -0.939693 0   
     length 6.8736   
     axis 0 0 -20   XYZ
    dof rx
    limits (-10.0 170.0)
 end
 begin
     id 9 
     name rfoot
     direction -0.0679995 -0.186827 0.980037   
     length 2.1218  
     axis -90 -7.62852e-016 -20   XYZ
    dof rx rz
    limits (-45.0 90.0)
           (-20.0 70.0)
  end
  begin
     id 10 
     name rtoes
     direction -1.53589e-011 -4.21772e-011 1   
     length 1.06864   
     axis -90 -7.62852e-016 -20   XYZ
    dof rx
    limits (-90.0 20.0)
  end
  begin
     id 11 
     name lowerback
     direction -0.0416607 0.996347 -0.0745409   
     length 2.12205   
     axis 0 0 0   XYZ
    dof rx ry rz
    limits (-20.0 45.0)
           (-30.0 30.0)
           (-30.0 30.0)
  end
  begin
     id 12 
     name upperback
     direction -0.000153993 0.999276 -0.0380568   
     length 2.12759   
     axis 0 0 0   XYZ
    dof rx ry rz
    limits (-20.0 45.0)
           (-30.0 30.0)
           (-30.0 30.0)
  end
  begin
     id 13 
     name thorax
     direction 0.0187671 0.999821 -0.00241421   
     length 2.13704   
     axis 0 0 0   XYZ
    dof rx ry rz
    limits (-20.0 45.0)
           (-30.0 30.0)
           (-30.0 30.0)
  end
  begin
     id 14 
     name lowerneck
     direction 0.0268157 0.964865 0.261374   
     length 1.65253   
     axis 0 0 0   XYZ
    dof rx ry rz
    limits (-20.0 45.0)
           (-30.0 30.0)
           (-30.0 30.0)
  end
  begin
     id 15 
     name upperneck
     direction 0.00263774 0.939908 -0.341418   
     length 1.72375   
     axis 0 0 0   XYZ
    dof rx ry rz
    limits (-20.0 45.0)
           (-30.0 30.0)
           (-30.0 30.0)
  end
  begin
     id 16
     name head
     direction -0.00526001 0.989001 -0.147818  
     length 1.74878  
     axis 0 0 0   XYZ
    dof rx ry rz
    limits (-20.0 45.0)
           (-30.0 30.0)
           (-30.0 30.0)
  end
  begin
     id 17 
     name lclavicle
     direction 0.881214 0.461162 -0.103884  
     length 3.25108  
     axis 0 0 0   XYZ
    dof ry rz
    limits (-20.0 10.0)
           (0.0 20.0)
  end
  begin
     id 18 
     name lhumerus
     direction 1 -4.4899e-011 3.38092e-027   
     length 4.87408   
     axis 180 -30 -90   XYZ
    dof rx ry rz
    limits (-60.0 90.0)
           (-90.0 90.0)
           (-90.0 90.0)
  end
  begin
     id 19
     name lradius
     direction 1 -4.48931e-011 9.96288e-027   
     length 2.76729   
     axis 180 -30 -90   XYZ
    dof rx
    limits (-10.0 170.0)
  end
  begin
     id 20
     name lwrist
     direction 1 -4.4896e-011 1.50617e-026   
     length 1.38364   
     axis -9.31234e-015 90 90   XYZ
    dof ry
    limits (-180.0 0.0)
 end
  begin
     id 21 
     name lhand
     direction 1 -4.49038e-011 3.01286e-026   
     length 0.98922   
     axis -1.92217e-014 90 90   XYZ
    dof rx rz
    limits (-90.0 90.0)
           (-45.0 45.0)
  end
  begin
     id 22 
     name lfingers
     direction 1 -4.49051e-011 6.02588e-026   
     length 0.797535   
     axis -3.84436e-014 90 90   XYZ
    dof rx
    limits (0.0 90.0)
  end
  begin
     id 23
     name lthumb
     direction 0.707107 -6.34901e-011 0.707107   
     length 1.14511   
     axis -90 45 2.19363e-014   XYZ
    dof rx rz
    limits (-45.0 45.0)
           (-45.0 45.0)
  end
  begin
     id 24 
     name rclavicle
     direction -0.893894 0.441652 -0.0767889   
     length 3.29361  
     axis 0 0 0   XYZ 
    dof ry rz
    limits (-10.0 20.0)
           (-20.0 0.0)
  end
  begin
     id 25 
     name rhumerus
     direction -1 -4.48945e-011 8.0491e-028  
     length 4.71404   
     axis 180 30 90   XYZ
    dof rx ry rz
    limits (-90.0 60.0)
           (-90.0 90.0)
           (-90.0 90.0)
  end
  begin
     id 26 
     name rradius
     direction -1 -4.48986e-011 9.27795e-027   
     length 2.83468   
     axis 180 30 90   XYZ
    dof rx
    limits (-10.0 170.0)
  end
  begin
     id 27 
     name rwrist
     direction -1 -4.49029e-011 1.5064e-026   
     length 1.41734   
     axis -9.31234e-015 -90 -90   XYZ
    dof ry
    limits (-180.0 0.0)
  end
  begin
     id 28
     name rhand
     direction -1 -4.48857e-011 3.01165e-026   
     length 0.868195   
     axis -1.92217e-014 -90 -90   XYZ
    dof rx rz
    limits (-90.0 90.0)
           (-45.0 45.0)
  end
  begin
     id 29
     name rfingers
     direction -1 -4.49048e-011 6.02585e-026   
     length 0.699961   
     axis -3.84436e-014 -90 -90   XYZ
    dof rx
    limits (0.0 90.0)
  end
  begin
     id 30
     name rthumb
     direction -0.707107 -6.34854e-011 0.707107   
     length 1.00501   
     axis -90 -45 -2.19363e-014   XYZ
    dof rx rz
    limits (-45.0 45.0)
           (-45.0 45.0)
  end
:hierarchy
  begin
    root lhipjoint rhipjoint lowerback
    lhipjoint lfemur
    lfemur ltibia
    ltibia lfoot
    lfoot ltoes
    rhipjoint rfemur
    rfemur rtibia
    rtibia rfoot
    rfoot rtoes
    lowerback upperback
    upperback thorax
    thorax lowerneck lclavicle rclavicle
    lowerneck upperneck
    upperneck head
    lclavicle lhumerus
    lhumerus lradius
    lradius lwrist
    lwrist lhand lthumb
    lhand lfingers
    rclavicle rhumerus
    rhumerus rradius
    rradius rwrist
    rwrist rhand rthumb
    rhand rfingers
  end

#!OML:ASF H:\ManfredObstacles\Project 1\Capture day 2\Session 1\male.ASF
:FULLY-SPECIFIED
:DEGREES
49
root -11.8613 16.7467 16.8857 -168.301 -2.70432 168.134
lowerback -3.132 -3.57408 -8.26847
upperback 1.94264 -4.66123 -4.55175
thorax 4.03969 -2.6484 -0.450888
lowerneck -38.5244 -0.799326 7.6319
upperneck 39.8794 -4.44315 -1.16797
head 24.0948 0.240139 -3.1926
rclavicle -4.87022e-015 -1.86858e-014
rhumerus -70.8585 -7.97923 -80.0633
rradius 61.2305
rwrist 11.6616
rhand -7.44603 -1.20637
rfingers 7.12502
rthumb 18.4418 -30.3522
lclavicle -4.87022e-015 -1.86858e-014
lhumerus -33.6018 -41.9593 90.7909
lradius 100.01
lwrist -18.4561
lhand -15.7854 5.87471
lfingers 7.12502
lthumb 10.4072 35.5972
rfemur -44.7 1.82194 13.4276
rtibia 36.7422
rfoot 6.89487 -17.6925
rtoes -14.371
lfemur 13.2516 -1.23943 -29.1357
ltibia 1.85071
lfoot 34.8354 -0.361803
ltoes -11.5711
50
root -11.8142 16.7903 16.5532 -168.01 -2.40933 168.112
lowerback -3.66459 -3.64312 -8.02096
upperback 1.8501 -4.70737 -4.60113
thorax 4.22219 -2.6655 -0.676942
lowerneck -38.6324 -0.769905 7.74998
upperneck 39.9113 -4.47771 -1.23022
head 24.1506 0.241674 -3.26589
rclavicle -6.38099e-014 -3.61788e-014
rhumerus -71.2152 -8.51537 -79.9531
rradius 61.4793
rwrist 11.6941
rhand -7.36022 -0.971918
rfingers 7.12502
rthumb 18.5243 -30.1099
lclavicle -6.38099e-014 -3.61788e-014
lhumerus -33.8691 -42.6848 90.7081
lradius 100.274
lwrist -18.5572
lhand -15.77 5.63657
lfingers 7.12502
lthumb 10.422 35.3583
rfemur -44.6436 1.84336 13.8422
rtibia 33.7243
rfoot 8.46841 -17.0762
rtoes -14.5214
lfemur 14.6252 -1.36443 -29.0015
ltibia -5.08889e-014
lfoot 37.9045 -0.965796
ltoes -9.32618
51
root -11.7656 16.8218 16.2209 -167.77 -2.12752 168.095
lowerback -4.1803 -3.67207 -7.76549
upperback 1.82639 -4.70284 -4.67482
thorax 4.4619 -2.6606 -0.931954
lowerneck -38.9375 -0.773638 7.83441
upperneck 39.9687 -4.60415 -1.24555
head 24.2941 0.218491 -3.34205
rclavicle -6.81831e-014 -7.79236e-014
rhumerus -71.4534 -9.15106 -79.8593
rradius 61.7252
rwrist 11.771
rhand -7.29177 -0.751048
rfingers 7.12502
rthumb 18.5902 -29.8827
lclavicle -6.81831e-014 -7.79236e-014
lhumerus -34.0011 -43.4684 90.5026
lradius 100.494
lwrist -18.6853
lhand -15.7366 5.38258
lfingers 7.12502
lthumb 10.4542 35.1027
rfemur -44.5586 1.72285 14.3941
rtibia 31.1685
rfoot 9.76301 -16.6668
rtoes -14.7022
lfemur 15.1046 -1.4926 -28.8378
ltibia -1.59028e-014
lfoot 40.1488 -1.11774
ltoes -6.9323
52
root -11.7151 16.8411 15.8891 -167.595 -1.85025 168.082
lowerback -4.65313 -3.6897 -7.54691
upperback 1.83622 -4.68512 -4.72634
thorax 4.71733 -2.65005 -1.14196
lowerneck -39.2803 -0.799212 7.84173
upperneck 40.0334 -4.73333 -1.22824
head 24.4634 0.187881 -3.3886
rclavicle 2.5842e-014 2.70347e-014
rhumerus -71.6167 -9.74083 -79.7623
rradius 61.9823
rwrist 11.8609
rhand -7.24106 -0.570179
rfingers 7.12502
rthumb 18.639 -29.6972
lclavicle 2.5842e-014 2.70347e-014
lhumerus -34.0869 -44.1722 90.2838
lradius 100.68
lwrist -18.7795
lhand -15.6564 5.09453
lfingers 7.12502
lthumb 10.5316 34.8107
rfemur -44.4466 1.43804 15.1066
rtibia 29.1238
rfoot 10.7215 -16.4824
rtoes -14.8527
lfemur 15.6351 -1.61864 -28.6545
ltibia 3.18055e-014
lfoot 42.3324 -1.37459
ltoes -4.62824
53
root -11.6627 16.8476 15.5582 -167.496 -1.57974 168.058
lowerback -5.06739 -3.69995 -7.37874
upperback 1.85851 -4.66182 -4.76326
thorax 4.95826 -2.63751 -1.30524
lowerneck -39.6245 -0.798398 7.85584
upperneck 40.1052 -4.80903 -1.23896
head 24.6453 0.173776 -3.43724
rclavicle -4.73108e-014 -1.94809e-014
rhumerus -71.7426 -10.2661 -79.6621
rradius 62.2427
rwrist 11.9511
rhand -7.19257 -0.407393
rfingers 7.12502
rthumb 18.6856 -29.5299
lclavicle -4.73108e-014 -1.94809e-014
lhumerus -34.1984 -44.7725 90.1022
lradius 100.837
lwrist -18.8228
lhand -15.5292 4.77844
lfingers 7.12502
lthumb 10.6543 34.4883
rfemur -44.2973 0.973332 15.9675
rtibia 27.6011
rfoot 11.501 -16.4808
rtoes -14.5313
lfemur 16.2139 -1.74724 -28.4677
ltibia 1.27222e-014
lfoot 44.509 -1.75916
ltoes -2.43543
54
root -11.6081 16.841 15.2287 -167.484 -1.30701 168.015
lowerback -5.39547 -3.70155 -7.27218
upperback 1.87767 -4.63396 -4.78765
thorax 5.15323 -2.62355 -1.41432
lowerneck -39.8487 -0.815852 7.83265
upperneck 40.1702 -4.86181 -1.24764
head 24.7829 0.160118 -3.46637
rclavicle -2.20651e-014 -2.90226e-014
rhumerus -71.8571 -10.7115 -79.5628
rradius 62.4976
rwrist 12.0298
rhand -7.15458 -0.272796
rfingers 7.12502
rthumb 18.7221 -29.3918
lclavicle -2.20651e-014 -2.90226e-014
lhumerus -34.3959 -45.2654 90.0125
lradius 100.955
lwrist -18.8219
lhand -15.393 4.4459
lfingers 7.12502
lthumb 10.7856 34.149
rfemur -44.0816 0.380196 16.9314
rtibia 26.5616
rfoot 12.2002 -16.6629
rtoes -13.725
lfemur 13.8304 -1.8202 -28.2395
ltibia 5.9158
lfoot 44.0072 -1.22182
ltoes -0.403519
55
root -11.5517 16.8206 14.901 -167.563 -1.02365 167.946
lowerback -5.6164 -3.65045 -7.16796
upperback 1.86111 -4.5553 -4.87411
thorax 5.2429 -2.58455 -1.56987
lowerneck -39.8094 -0.921849 7.76063
upperneck 40.223 -5.0083 -1.16875
head 24.8119 0.119434 -3.45218
rclavicle 4.52235e-014 -2.50469e-014
rhumerus -72.0627 -11.2087 -79.4987
rradius 62.7392
rwrist 12.0786
rhand -7.11952 -0.146096
rfingers 7.12502
rthumb 18.7559 -29.2619
lclavicle 4.52235e-014 -2.50469e-014
lhumerus -34.8073 -45.7781 90.0402
lradius 101.058
lwrist -18.7416
lhand -15.2522 4.13808
lfingers 7.12502
lthumb 10.9215 33.834
rfemur -43.7644 -0.27763 17.9314
rtibia 25.9416
rfoot 12.9521 -17.0032
rtoes -12.3478
lfemur 12.5938 -1.88145 -28.0616
ltibia 9.68956
lfoot 44.4283 -1.44154
ltoes 1.5125
56
root -11.4939 16.7856 14.5754 -167.736 -0.71652 167.848
lowerback -5.72693 -3.5823 -7.12216
upperback 1.8254 -4.46478 -4.96239
thorax 5.25414 -2.54095 -1.6837
lowerneck -39.5968 -1.03339 7.67569
upperneck 40.2418 -5.1172 -1.09766
head 24.7493 0.081606 -3.42049
rclavicle -3.54831e-014 -8.74653e-015
rhumerus -72.2736 -11.6103 -79.4546
rradius 62.9789
rwrist 12.0608
rhand -7.08853 -0.0664314
rfingers 7.12502
rthumb 18.7857 -29.1793
lclavicle -3.54831e-014 -8.74653e-015
lhumerus -35.3779 -46.1504 90.2059
lradius 101.119
lwrist -18.6802
lhand -15.1501 3.81704
lfingers 7.12502
lthumb 11.0199 33.5078
rfemur -43.3146 -0.921367 18.8975
rtibia 25.6745
rfoot 13.8047 -17.4656
rtoes -10.5745
lfemur 11.5843 -1.90903 -27.9206
ltibia 13.1295
lfoot 44.9218 -2.03313
ltoes 3.26863
57
root -11.4355 16.735 14.2524 -168.002 -0.364481 167.713
lowerback -5.73189 -3.45873 -7.10914
upperback 1.81008 -4.31317 -5.10122
thorax 5.224 -2.47056 -1.81851
lowerneck -39.3394 -1.17528 7.61033
upperneck 40.2369 -5.29265 -1.00892
head 24.6414 0.0244279 -3.39927
rclavicle 3.16068e-014 -8.34896e-015
rhumerus -72.4204 -12.0525 -79.4726
rradius 63.1844
rwrist 12.0201
rhand -7.06243 -0.0136361
rfingers 7.12502
rthumb 18.8108 -29.1241
lclavicle 3.16068e-014 -8.34896e-015
lhumerus -35.9698 -46.5023 90.3575
lradius 101.14
lwrist -18.657
lhand -15.0618 3.52805
lfingers 7.12502
lthumb 11.1051 33.2142
rfemur -42.7298 -1.54889 19.8088
rtibia 25.7196
rfoot 14.6384 -17.9048
rtoes -8.80882
lfemur 10.681 -2.08699 -27.8636
ltibia 16.4773
lfoot 45.3441 -2.71964
ltoes 4.7345
58
root -11.3775 16.6685 13.9321 -168.353 0.0545577 167.548
lowerback -5.64263 -3.29833 -7.15087
upperback 1.79003 -4.12172 -5.24998
thorax 5.13826 -2.38268 -1.92209
lowerneck -38.9956 -1.31722 7.56475
upperneck 40.2109 -5.45488 -0.94427
head 24.4819 -0.0325803 -3.38724
rclavicle -4.70126e-014 1.47101e-014
rhumerus -72.515 -12.4254 -79.5325
rradius 63.4086
rwrist 11.8018
rhand -6.98768 -0.0794341
rfingers 7.12502
rthumb 18.8827 -29.1829
lclavicle -4.70126e-014 1.47101e-014
lhumerus -36.6849 -46.7278 90.6074
lradius 101.122
lwrist -18.7134
lhand -15.0192 3.27012
lfingers 7.12502
lthumb 11.1463 32.9541
rfemur -42.0333 -2.27825 20.7428
rtibia 26.0678
rfoot 15.2648 -17.8088
rtoes -6.9168
lfemur 9.84121 -2.13218 -27.8308
ltibia 19.803
lfoot 45.4367 -3.6016
ltoes 5.76712
59
root -11.3208 16.5864 13.6152 -168.778 0.548497 167.358
lowerback -5.45765 -3.11713 -7.25208
upperback 1.77319 -3.90969 -5.38251
thorax 5.00693 -2.28622 -1.96775
lowerneck -38.7127 -1.44089 7.50187
upperneck 40.1914 -5.57218 -0.911204
head 24.3543 -0.082053 -3.37974
rclavicle 7.7526e-015 3.10104e-014
rhumerus -72.5131 -12.6738 -79.6228
rradius 63.6527
rwrist 11.4326
rhand -6.86928 -0.247621
rfingers 7.12502
rthumb 18.9965 -29.34
lclavicle 7.7526e-015 3.10104e-014
lhumerus -37.4519 -46.7706 90.9195
lradius 101.049
lwrist -18.8742
lhand -15.031 3.04089
lfingers 7.12502
lthumb 11.1348 32.7255
rfemur -41.2559 -3.03977 21.6495
rtibia 26.7362
rfoot 15.3103 -17.0378
rtoes -5.34498
lfemur 9.04902 -2.05321 -27.8276
ltibia 23.1379
lfoot 45.1333 -4.46034
ltoes 6.36962
60
root -11.2658 16.4906 13.3024 -169.268 1.12801 167.17
lowerback -5.19714 -2.92133 -7.39286
upperback 1.75745 -3.68276 -5.47694
thorax 4.83882 -2.18201 -1.94624
lowerneck -38.4212 -1.5452 7.40785
upperneck 40.1768 -5.61894 -0.907886
head 24.2353 -0.117997 -3.36273
rclavicle 8.27938e-014 5.32743e-014
rhumerus -72.394 -12.7697 -79.7311
rradius 63.9034
rwrist 10.9322
rhand -6.71699 -0.525614
rfingers 7.12502
rthumb 19.143 -29.6035
lclavicle 8.27938e-014 5.32743e-014
lhumerus -38.286 -46.5966 91.3154
lradius 100.927
lwrist -19.1551
lhand -15.1085 2.88956
lfingers 7.12502
lthumb 11.0601 32.5782
rfemur -40.4067 -3.7295 22.5034
rtibia 27.7452
rfoot 14.3468 -15.7071
rtoes -4.29888
lfemur 8.28686 -1.82463 -27.8201
ltibia 26.4994
lfoot 44.4066 -5.10902
ltoes 6.52532
61
root -11.2124 16.384 12.9948 -169.802 1.79771 167.01
lowerback -4.87493 -3.38559 -7.4592
upperback 1.69059 -3.26088 -5.57098
thorax 4.6309 -1.51689 -1.91352
lowerneck -38.2021 -1.61301 7.34568
upperneck 40.1739 -5.63123 -0.92848
head 24.1535 -0.138353 -3.35813
rclavicle 4.26393e-014 1.31198e-014
rhumerus -72.1276 -12.8192 -79.8667
rradius 64.0954
rwrist 10.4794
rhand -6.60781 -0.772471
rfingers 7.12502
rthumb 19.248 -29.8399
lclavicle 4.26393e-014 1.31198e-014
lhumerus -39.1189 -46.2747 91.7015
lradius 100.747
lwrist -19.5547
lhand -15.222 2.80124
lfingers 7.12502
lthumb 10.9506 32.4957
rfemur -39.5144 -4.1212 23.2144
rtibia 29.0955
rfoot 12.3416 -14.2954
rtoes -3.38026
lfemur 7.52149 -1.45047 -27.7765
ltibia 29.9078
lfoot 43.3505 -5.43404
ltoes 6.31479
62
root -11.1598 16.27 12.6931 -170.368 2.55011 166.906
lowerback -4.48386 -3.15019 -7.55809
upperback 1.69302 -2.98321 -5.60669
thorax 4.40855 -1.3773 -1.8476
lowerneck -37.9014 -1.65236 7.29169
upperneck 40.1666 -5.5716 -0.978608
head 24.0434 -0.138991 -3.34707
rclavicle 2.98177e-015 1.86858e-014
rhumerus -71.7113 -12.7498 -80.0147
rradius 64.2027
rwrist 10.1559
rhand -6.59426 -0.946512
rfingers 7.12502
rthumb 19.261 -30.0127
lclavicle 2.98177e-015 1.86858e-014
lhumerus -39.9542 -45.738 92.1075
lradius 100.489
lwrist -20.0583
lhand -15.3749 2.7829
lfingers 7.12502
lthumb 10.8032 32.4851
rfemur -38.6092 -4.08912 23.7615
rtibia 30.7576
rfoot 9.46004 -13.3059
rtoes -2.49464
lfemur 6.73279 -0.940181 -27.6557
ltibia 33.3764
lfoot 42.0533 -5.39053
ltoes 5.85052
63
root -11.1074 16.1516 12.3982 -170.954 3.38425 166.881
lowerback -4.0306 -2.85015 -7.54232
upperback 1.7355 -2.62777 -5.68013
thorax 4.18235 -1.19506 -1.87931
lowerneck -37.7365 -1.73868 7.20223
upperneck 40.1453 -5.64639 -0.922597
head 23.9665 -0.17504 -3.31371
rclavicle -1.60022e-014 -6.08281e-014
rhumerus -71.0923 -12.8184 -80.245
rradius 64.1612
rwrist 10.0341
rhand -6.71088 -0.99682
rfingers 7.12502
rthumb 19.1489 -30.0741
lclavicle -1.60022e-014 -6.08281e-014
lhumerus -40.706 -45.2 92.3745
lradius 100.172
lwrist -20.5469
lhand -15.5209 2.83343
lfingers 7.12502
lthumb 10.6623 32.5429
rfemur -37.725 -3.65277 24.2022
rtibia 32.6598
rfoot 6.12477 -12.9455
rtoes -1.77437
lfemur 5.89778 -0.327504 -27.4338
ltibia 36.9214
lfoot 40.6272 -5.01564
ltoes 5.27804
